<?xml version="1.0" encoding="UTF-8" standalone="no"?>
<svg
   class="icon"
   width="1800"
   height="480"
   viewBox="0 0 1800 480"
   version="1.1"
   id="svg1"
   xmlns="http://www.w3.org/2000/svg"
   xmlns:svg="http://www.w3.org/2000/svg">
  <defs
     id="defs1" />
  <g
     id="g1"
     transform="scale(15)">
    <rect
       id="Clear_space"
       width="120"
       height="32"
       fill="none"
       style="fill:#000000"
       x="0"
       y="0" />
    <path
       id="Logo_ratio"
       d="m 0,11.651 v -1.14 h 3.994 v 1.45 C 3.9670642,13.620386 6.5920868,13.834244 6.932,12.3 7.0389343,11.935277 7.0298484,11.546332 6.906,11.187 6.133,9.243 0.851,8.363 0.18,5.333 0.04339057,4.6673718 0.03490584,3.9818052 0.155,3.313 0.567,0.88 2.705,0 5.359,0 7.472,0 10.384,0.492 10.384,3.754 V 4.816 H 6.674 V 3.884 C 6.7732074,2.2569953 4.2075899,2.0118866 3.917,3.547 3.8753,3.8052419 3.88413,4.0691234 3.943,4.324 c 0.437,1.734 6.081,2.667 6.7,5.8 0.154701,0.811974 0.163167,1.645049 0.025,2.46 C 10.307,15.068 8.091,16 5.412,16 2.6,16 0,14.99 0,11.651 Z M 48.392,11.6 v -1.14 h 3.943 v 1.424 c -0.05397,1.644592 2.559148,1.880495 2.908,0.362 0.106887,-0.356191 0.09813,-0.737094 -0.025,-1.088 C 54.47,9.243 49.239,8.358 48.57,5.333 48.43315,4.6761938 48.424322,3.9991511 48.544,3.339 48.959,0.932 51.1,0.052 53.7,0.052 c 2.088,0 4.973,0.518 4.973,3.728 V 4.816 H 54.989 V 3.91 c 0.104379,-1.6122232 -2.442006,-1.8743854 -2.705,-0.362 -0.04213,0.2581707 -0.03364,0.5220715 0.025,0.777 0.412,1.734 6,2.641 6.623,5.747 0.154529,0.803239 0.162998,1.627756 0.025,2.434 -0.361,2.486 -2.551,3.392 -5.2,3.392 C 50.97,15.9 48.392,14.887 48.392,11.6 Z m 14.121,0.545 C 62.47711,11.817946 62.46874,11.488454 62.488,11.16 V 0.44 h 3.762 v 11.055 c -0.0049,0.19035 0.0035,0.380808 0.025,0.57 0.39004,1.44836 2.44496,1.44836 2.835,0 0.02233,-0.18913 0.03102,-0.379622 0.026,-0.57 V 0.44 H 72.9 v 10.718 c 0,0.285 -0.026,0.829 -0.026,0.985 -0.257,2.8 -2.448,3.7 -5.179,3.7 -2.731,0 -4.924,-0.905 -5.182,-3.7 z M 93.487,11.989 C 93.448756,11.660766 93.431387,11.330435 93.435,11 V 4.712 c 0,-0.259 0.025,-0.725 0.051,-0.985 0.335,-2.795 2.577,-3.675 5.231,-3.675 2.629,0 4.947,0.88 5.206,3.676 0.0309,0.3273744 0.0392,0.6564814 0.025,0.985 V 5.2 h -3.762 V 4.376 c 6.1e-4,-0.1911661 -0.0165,-0.3819789 -0.051,-0.57 -0.454722,-1.4517284 -2.509278,-1.4517284 -2.964,0 -0.04355,0.2306369 -0.06066,0.4654867 -0.051,0.7 v 6.834 c -0.0044,0.190371 0.0043,0.380816 0.026,0.57 0.392032,1.489802 2.753983,1.488384 3.091,0.003 0.0347,-0.187918 0.0254,-0.379705 0.026,-0.57 V 9.165 h -1.52 V 6.99 H 104 V 11 c 0.004,0.328775 -0.0136,0.657453 -0.052,0.984 -0.257,2.718 -2.6,3.676 -5.231,3.676 -2.631,0 -4.973,-0.955 -5.23,-3.673 z m -52.438,3.389 -0.1,-13.825 -2.58,13.825 H 34.607 L 32.055,1.553 31.955,15.378 H 28.242 L 28.551,0.466 h 6.056 l 1.881,11.651 1.881,-11.651 h 6.055 l 0.335,14.912 z m -19.79,0 -2.01,-13.825 -2.062,13.825 H 13.168 L 15.9,0.466 h 6.623 l 2.732,14.912 z M 84.236,15.223 80.5,2.822 l 0.206,12.4 h -3.66 V 0.466 h 5.514 l 3.5,12.013 -0.201,-12.013 h 3.685 v 14.758 z"
       transform="translate(8,8)"
       style="fill:#ffffff" />
  </g>
</svg>
