<svg id="Layer_1" data-name="Layer 1" xmlns="http://www.w3.org/2000/svg" viewBox="0 0 1008 288"><defs><style>.cls-1{fill:#de4f39;}.cls-2{fill:#fff;}.cls-3{fill:#58595b;}.cls-4{fill:#007c92;}</style></defs><circle class="cls-1" cx="120.33" cy="166.57" r="115.83"/><path class="cls-2" d="M105.38,230.92H60.47c-6.08,0-8.1-2.93-8.76-4.68s-1.09-5.28,3.48-9.3l22.34-19.69L45.06,166.59a19.26,19.26,0,0,1,2.54-3.37,4.33,4.33,0,0,1,6.11-.19L111,216.8c4.41,4.14,3.9,7.69,3.21,9.44S111.42,230.92,105.38,230.92Zm.67-6.63h0Zm-43.86-2h42L83.86,203.2ZM184.55,152V106.49h0a4.23,4.23,0,0,0-.32-1.6,4.4,4.4,0,0,0-.89-1.35h0l-.1-.09h0a4.36,4.36,0,0,0-3-1.21H134.58s.14,1.93.14,4.32a4.31,4.31,0,0,0,4.32,4.32H169.8l-35.66,35.66a41.63,41.63,0,0,0,2.9,3.22,4.33,4.33,0,0,0,6.11,0L175.91,117v30.76a4.33,4.33,0,0,0,4.32,4.33C182.62,152.06,184.55,152,184.55,152Zm7.76,64.56L90.72,110.86h29.83a42.55,42.55,0,0,0,.22-4.32,4.31,4.31,0,0,0-4.32-4.32H90.29c-6,0-8.11,2.94-8.86,4.69s-1.38,5.33,2.76,9.63l39.17,40.77L118,162.69a4.32,4.32,0,0,0,0,6.11,30.12,30.12,0,0,0,3.28,2.82l8.08-8.08,56.45,58.74H164.6a22.25,22.25,0,0,1-13.42-5.65L51.05,114.07a24.05,24.05,0,0,0-3.31,2.72,4.32,4.32,0,0,0-.08,6.11L145,222.66c4.52,4.64,13.14,8.26,19.61,8.26h21.61c6,0,8.11-2.93,8.86-4.68S196.45,220.91,192.31,216.6Z"/><path class="cls-1" d="M782.53,51.82l-4.47-7.14L825.55,5.59l14.06,58.73L829.24,66.8c-5.21,1.25-9.11-2-10.35-7.19L814.31,40.5,798.56,52.6S790.23,61.45,782.53,51.82Z"/><path class="cls-3" d="M361,234.14a67.57,67.57,0,1,1,32-127.06l4.3,2.32-4.89,9.08a9.26,9.26,0,0,1-8.15,4.86,9.36,9.36,0,0,1-3.76-.79,48.17,48.17,0,1,0,0,88.05,9.26,9.26,0,0,1,11.91,4.06l4.89,9.08-4.3,2.33A67.77,67.77,0,0,1,361,234.14Z"/><path class="cls-4" d="M812.23,79,748.5,231.28a9.68,9.68,0,0,1-9,6.08h-4.73a9.7,9.7,0,0,1-8.92-5.87l-37.71-98.34h59.74v10.64a9.73,9.73,0,0,1-9.71,9.71H719.08l17.8,52.22L787.83,85a9.67,9.67,0,0,1,9-6.08Z"/><path class="cls-4" d="M483.68,102.22H409.17v9.86a9.22,9.22,0,0,0,9.21,9.2h62.41a9.24,9.24,0,0,0-7.12,9v28.48H435.16a9.21,9.21,0,0,0-9.2,9.2v9.86h47.71V202.9c0,6.47,4.68,8.39,7.36,9H418.38a9.22,9.22,0,0,0-9.21,9.21v9.85h74.51a9.21,9.21,0,0,0,9.2-9.2V111.43A9.22,9.22,0,0,0,483.68,102.22Z"/><path class="cls-3" d="M655.39,230.92V142.43a9.23,9.23,0,0,1,9.23-9.22h10V221.7a9.23,9.23,0,0,1-9.23,9.22ZM623.68,121.46v-10a9.24,9.24,0,0,1,9.22-9.22h73.45v10a9.24,9.24,0,0,1-9.22,9.22Z"/><path class="cls-3" d="M864,237.35c-27.38-.52-49.65-23.57-49.65-51.38V102.22h10.21a9.35,9.35,0,0,1,9.33,9.33v74.51c0,17.11,13.61,31.35,30.33,31.75H865a31.13,31.13,0,0,0,31.09-31.09V111.55a9.34,9.34,0,0,1,9.33-9.33h10.21v84.51A50.68,50.68,0,0,1,865,237.36Z"/><path class="cls-3" d="M983.2,230.92a9.16,9.16,0,0,1-6.52-2.69L936.37,188a9.23,9.23,0,0,1,6.52-15.76h16.94c14.2,0,26-11.29,26.34-25.16a25.8,25.8,0,0,0-25.77-26.4H936.72a9.25,9.25,0,0,1-9.23-9.23v-9.22H960.4a44.44,44.44,0,0,1,44.23,43.46,43.54,43.54,0,0,1-12.69,31.44,45.65,45.65,0,0,1-27.06,13.26l40.62,40.54Z"/><path class="cls-3" d="M597.68,230.92a9.26,9.26,0,0,1-7.41-3.72l-63.81-85.95V202.9a9,9,0,0,1-9.22,9H506.75V102.22h10.63a9.26,9.26,0,0,1,7.4,3.72l67.36,90.72V111.55a9.23,9.23,0,0,1,9.22-9.22h10.48V230.92Z"/></svg>