<svg id="Layer_1" data-name="Layer 1" xmlns="http://www.w3.org/2000/svg" viewBox="0 0 432 369"><defs><style>.cls-1{fill:#fff;}</style></defs><path class="cls-1" d="M268.55,28a12.14,12.14,0,0,1-12.14-12.14c0-6.71-.39-12.14-.39-12.14H384.44a12,12,0,0,1,4.49.92,12.21,12.21,0,0,1,3.79,2.49h0l.28.27h0a12.06,12.06,0,0,1,2.5,3.79,12.25,12.25,0,0,1,.91,4.5h0v128s-5.43,0-12.13,0a12.14,12.14,0,0,1-12.14-12.14V45.14L280.09,137.2a12.14,12.14,0,0,1-17.17,0,118.94,118.94,0,0,1-8.14-9L355,28ZM198.71,352.14c-2,4.91-7.75,13.16-24.73,13.16H47.82c-17.11,0-22.77-8.24-24.63-13.15S20.14,337.31,33,326l62.76-55.3L4.5,184.55a54.62,54.62,0,0,1,7.16-9.46,12.13,12.13,0,0,1,17.15-.54L189.69,325.62C202.07,337.24,200.65,347.22,198.71,352.14Zm227.26,0c-2.1,4.92-8.12,13.17-24.9,13.17H340.36c-18.19,0-42.38-10.19-55.08-23.21L11.82,61.8A12.14,12.14,0,0,1,12,44.63,70,70,0,0,1,21.34,37L302.66,325.14c8.26,8.46,25.87,15.88,37.7,15.88h59.52L241.31,176,218.59,198.7a83.58,83.58,0,0,1-9.21-7.95,12.14,12.14,0,0,1,0-17.17l15.11-15.11-110-114.53c-11.63-12.1-9.86-22.16-7.76-27.07S114.81,3.7,131.6,3.7h73.49a12.14,12.14,0,0,1,12.14,12.14A117.78,117.78,0,0,1,216.6,28H132.78L418.21,325.06C429.84,337.16,428.06,347.22,426,352.13ZM52.65,341h118L113.52,287.4Z"/></svg>